<svg width="20" height="21" viewBox="0 0 20 21" fill="none" xmlns="http://www.w3.org/2000/svg">
<path d="M16.5859 7.65499C16.5464 7.56455 16.4911 7.48186 16.4225 7.41082L11.4225 2.41082C11.3515 2.34231 11.2688 2.287 11.1784 2.24749C11.1534 2.23582 11.1267 2.22916 11.1 2.21999C11.0303 2.19626 10.9577 2.18197 10.8842 2.17749C10.8667 2.17582 10.8509 2.16666 10.8334 2.16666H5.00004C4.08087 2.16666 3.33337 2.91416 3.33337 3.83332V17.1667C3.33337 18.0858 4.08087 18.8333 5.00004 18.8333H15C15.9192 18.8333 16.6667 18.0858 16.6667 17.1667V7.99999C16.6667 7.98249 16.6575 7.96666 16.6559 7.94832C16.6518 7.87475 16.6375 7.80211 16.6134 7.73249C16.605 7.70582 16.5975 7.67999 16.5859 7.65499ZM13.8217 7.16666H11.6667V5.01166L13.8217 7.16666ZM5.00004 17.1667V3.83332H10V7.99999C10 8.221 10.0878 8.43297 10.2441 8.58925C10.4004 8.74553 10.6124 8.83332 10.8334 8.83332H15L15.0017 17.1667H5.00004Z" fill="#55879C"/>
<path d="M6.66663 10.5H13.3333V12.1667H6.66663V10.5ZM6.66663 13.8333H13.3333V15.5H6.66663V13.8333ZM6.66663 7.16666H8.33329V8.83332H6.66663V7.16666Z" fill="#55879C"/>
</svg>
